<?xml version="1.0" standalone="no"?>
<!DOCTYPE svg PUBLIC "-//W3C//DTD SVG 20010904//EN"
 "http://www.w3.org/TR/2001/REC-SVG-20010904/DTD/svg10.dtd">
<svg version="1.0" xmlns="http://www.w3.org/2000/svg"
 width="260.000000pt" height="260.000000pt" viewBox="0 0 260.000000 260.000000"
 preserveAspectRatio="xMidYMid meet">
<metadata>
Created by potrace 1.14, written by Peter Selinger 2001-2017
</metadata>
<g transform="translate(0.000000,260.000000) scale(0.100000,-0.100000)"
fill="#000000" stroke="none">
<path d="M0 1300 l0 -1300 1300 0 1300 0 0 1300 0 1300 -1300 0 -1300 0 0
-1300z m800 667 c1 -12 6 -51 13 -85 l12 -64 28 22 c36 28 42 22 23 -24 -18
-43 -25 -39 101 -62 51 -9 91 -19 88 -24 -2 -4 -39 -13 -82 -19 -123 -19 -117
-14 -78 -79 18 -31 32 -59 30 -61 -2 -2 -21 10 -42 26 -62 48 -60 49 -77 -35
-27 -123 -32 -127 -45 -42 -7 41 -15 85 -19 98 l-7 23 -34 -26 c-19 -13 -36
-23 -38 -21 -2 1 6 23 16 47 24 51 31 45 -94 82 l-80 24 48 6 c26 4 67 10 92
13 43 5 45 7 39 31 -6 23 -4 25 12 19 10 -4 23 -8 28 -9 5 -1 19 42 30 95 18
89 35 119 36 65z m480 -653 l0 -25 28 20 c69 51 166 27 229 -57 32 -42 33 -47
33 -139 0 -137 28 -183 110 -183 l29 0 -30 58 c-29 53 -30 63 -27 144 3 77 6
91 33 129 47 67 108 93 226 97 109 4 142 -6 137 -41 -3 -21 -8 -22 -103 -23
-143 -1 -204 -35 -224 -126 -10 -44 3 -132 24 -164 64 -98 383 -114 699 -33
70 18 81 18 94 5 20 -19 9 -44 -25 -57 -16 -6 -80 -22 -143 -35 -160 -35 -387
-43 -495 -19 -66 14 -87 15 -138 5 -74 -14 -129 -6 -168 27 -50 43 -63 78 -65
183 -1 52 -3 98 -3 102 -3 20 -65 77 -91 83 -38 8 -82 -15 -109 -58 -19 -31
-21 -49 -21 -189 0 -130 -3 -158 -16 -169 -11 -9 -20 -10 -32 -2 -14 8 -18 30
-20 113 l-3 104 -20 -42 c-26 -52 -93 -128 -130 -147 -38 -20 -85 -18 -136 5
-49 22 -76 60 -101 142 -9 32 -19 58 -22 58 -3 0 -11 -20 -18 -45 -43 -160
-155 -292 -312 -368 -109 -53 -279 -110 -312 -105 -17 2 -23 10 -23 28 0 23 9
28 110 61 61 20 136 48 167 62 206 93 305 243 338 516 14 113 17 121 45 121
28 0 31 -10 64 -187 34 -179 66 -233 138 -233 75 0 171 161 203 343 6 34 18
67 27 74 23 17 53 -1 53 -33z"/>
</g>
</svg>
